<mxfile host="app.diagrams.net" modified="2021-08-25T09:28:35.406Z" agent="5.0 (Windows)" etag="u0LowTgJqaMZh3NIhKtE" version="14.9.9" type="github">
  <diagram id="C5RBs43oDa-KdzZeNtuy" name="Page-1">
    <mxGraphModel dx="1221" dy="631" grid="0" gridSize="10" guides="1" tooltips="1" connect="1" arrows="1" fold="1" page="1" pageScale="1" pageWidth="827" pageHeight="1169" math="0" shadow="0">
      <root>
        <mxCell id="WIyWlLk6GJQsqaUBKTNV-0" />
        <mxCell id="WIyWlLk6GJQsqaUBKTNV-1" parent="WIyWlLk6GJQsqaUBKTNV-0" />
        <mxCell id="oh9VFNRBb2g4uDwo_XYk-66" value="" style="rounded=0;whiteSpace=wrap;html=1;dashed=1;" vertex="1" parent="WIyWlLk6GJQsqaUBKTNV-1">
          <mxGeometry x="277.5" y="841" width="347" height="69" as="geometry" />
        </mxCell>
        <mxCell id="oh9VFNRBb2g4uDwo_XYk-65" value="" style="rounded=0;whiteSpace=wrap;html=1;dashed=1;" vertex="1" parent="WIyWlLk6GJQsqaUBKTNV-1">
          <mxGeometry x="277.5" y="953" width="347" height="69" as="geometry" />
        </mxCell>
        <mxCell id="WIyWlLk6GJQsqaUBKTNV-3" value="消防物联网监管平台" style="rounded=1;whiteSpace=wrap;html=1;fontSize=12;glass=0;strokeWidth=1;shadow=0;" parent="WIyWlLk6GJQsqaUBKTNV-1" vertex="1">
          <mxGeometry x="354" y="60" width="120" height="40" as="geometry" />
        </mxCell>
        <mxCell id="WIyWlLk6GJQsqaUBKTNV-7" value="消防物联网运营服务机构" style="rounded=1;whiteSpace=wrap;html=1;fontSize=12;glass=0;strokeWidth=1;shadow=0;" parent="WIyWlLk6GJQsqaUBKTNV-1" vertex="1">
          <mxGeometry x="354" y="150" width="120" height="40" as="geometry" />
        </mxCell>
        <mxCell id="oh9VFNRBb2g4uDwo_XYk-2" value="" style="endArrow=none;html=1;exitX=0.5;exitY=0;exitDx=0;exitDy=0;entryX=0.5;entryY=1;entryDx=0;entryDy=0;" edge="1" parent="WIyWlLk6GJQsqaUBKTNV-1" source="WIyWlLk6GJQsqaUBKTNV-7" target="WIyWlLk6GJQsqaUBKTNV-3">
          <mxGeometry width="50" height="50" relative="1" as="geometry">
            <mxPoint x="254" y="150" as="sourcePoint" />
            <mxPoint x="424" y="100" as="targetPoint" />
          </mxGeometry>
        </mxCell>
        <mxCell id="oh9VFNRBb2g4uDwo_XYk-84" style="edgeStyle=orthogonalEdgeStyle;rounded=0;orthogonalLoop=1;jettySize=auto;html=1;exitX=0.5;exitY=1;exitDx=0;exitDy=0;entryX=0.5;entryY=0;entryDx=0;entryDy=0;" edge="1" parent="WIyWlLk6GJQsqaUBKTNV-1" source="oh9VFNRBb2g4uDwo_XYk-5" target="oh9VFNRBb2g4uDwo_XYk-69">
          <mxGeometry relative="1" as="geometry" />
        </mxCell>
        <mxCell id="oh9VFNRBb2g4uDwo_XYk-85" style="edgeStyle=orthogonalEdgeStyle;rounded=0;orthogonalLoop=1;jettySize=auto;html=1;exitX=0.5;exitY=1;exitDx=0;exitDy=0;entryX=0.5;entryY=0;entryDx=0;entryDy=0;" edge="1" parent="WIyWlLk6GJQsqaUBKTNV-1" source="oh9VFNRBb2g4uDwo_XYk-5" target="oh9VFNRBb2g4uDwo_XYk-68">
          <mxGeometry relative="1" as="geometry" />
        </mxCell>
        <mxCell id="oh9VFNRBb2g4uDwo_XYk-86" style="edgeStyle=orthogonalEdgeStyle;rounded=0;orthogonalLoop=1;jettySize=auto;html=1;exitX=0.5;exitY=1;exitDx=0;exitDy=0;entryX=0.5;entryY=0;entryDx=0;entryDy=0;" edge="1" parent="WIyWlLk6GJQsqaUBKTNV-1" source="oh9VFNRBb2g4uDwo_XYk-5" target="oh9VFNRBb2g4uDwo_XYk-70">
          <mxGeometry relative="1" as="geometry" />
        </mxCell>
        <mxCell id="oh9VFNRBb2g4uDwo_XYk-87" style="edgeStyle=orthogonalEdgeStyle;rounded=0;orthogonalLoop=1;jettySize=auto;html=1;exitX=0.5;exitY=1;exitDx=0;exitDy=0;" edge="1" parent="WIyWlLk6GJQsqaUBKTNV-1" source="oh9VFNRBb2g4uDwo_XYk-5" target="oh9VFNRBb2g4uDwo_XYk-71">
          <mxGeometry relative="1" as="geometry" />
        </mxCell>
        <mxCell id="oh9VFNRBb2g4uDwo_XYk-88" style="edgeStyle=orthogonalEdgeStyle;rounded=0;orthogonalLoop=1;jettySize=auto;html=1;exitX=0.5;exitY=1;exitDx=0;exitDy=0;" edge="1" parent="WIyWlLk6GJQsqaUBKTNV-1" source="oh9VFNRBb2g4uDwo_XYk-5" target="oh9VFNRBb2g4uDwo_XYk-72">
          <mxGeometry relative="1" as="geometry" />
        </mxCell>
        <mxCell id="oh9VFNRBb2g4uDwo_XYk-89" style="edgeStyle=orthogonalEdgeStyle;rounded=0;orthogonalLoop=1;jettySize=auto;html=1;exitX=0.5;exitY=1;exitDx=0;exitDy=0;entryX=0.5;entryY=0;entryDx=0;entryDy=0;" edge="1" parent="WIyWlLk6GJQsqaUBKTNV-1" source="oh9VFNRBb2g4uDwo_XYk-5" target="oh9VFNRBb2g4uDwo_XYk-74">
          <mxGeometry relative="1" as="geometry" />
        </mxCell>
        <mxCell id="oh9VFNRBb2g4uDwo_XYk-5" value="消防物联网运营服务平台" style="rounded=1;whiteSpace=wrap;html=1;" vertex="1" parent="WIyWlLk6GJQsqaUBKTNV-1">
          <mxGeometry x="225.5" y="220" width="110" height="30" as="geometry" />
        </mxCell>
        <mxCell id="oh9VFNRBb2g4uDwo_XYk-90" style="edgeStyle=orthogonalEdgeStyle;rounded=0;orthogonalLoop=1;jettySize=auto;html=1;exitX=0.5;exitY=1;exitDx=0;exitDy=0;entryX=0.5;entryY=0;entryDx=0;entryDy=0;" edge="1" parent="WIyWlLk6GJQsqaUBKTNV-1" source="oh9VFNRBb2g4uDwo_XYk-6" target="oh9VFNRBb2g4uDwo_XYk-76">
          <mxGeometry relative="1" as="geometry" />
        </mxCell>
        <mxCell id="oh9VFNRBb2g4uDwo_XYk-91" style="edgeStyle=orthogonalEdgeStyle;rounded=0;orthogonalLoop=1;jettySize=auto;html=1;exitX=0.5;exitY=1;exitDx=0;exitDy=0;entryX=0.5;entryY=0;entryDx=0;entryDy=0;" edge="1" parent="WIyWlLk6GJQsqaUBKTNV-1" source="oh9VFNRBb2g4uDwo_XYk-6" target="oh9VFNRBb2g4uDwo_XYk-75">
          <mxGeometry relative="1" as="geometry" />
        </mxCell>
        <mxCell id="oh9VFNRBb2g4uDwo_XYk-92" style="edgeStyle=orthogonalEdgeStyle;rounded=0;orthogonalLoop=1;jettySize=auto;html=1;exitX=0.5;exitY=1;exitDx=0;exitDy=0;entryX=0.5;entryY=0;entryDx=0;entryDy=0;" edge="1" parent="WIyWlLk6GJQsqaUBKTNV-1" source="oh9VFNRBb2g4uDwo_XYk-6" target="oh9VFNRBb2g4uDwo_XYk-77">
          <mxGeometry relative="1" as="geometry" />
        </mxCell>
        <mxCell id="oh9VFNRBb2g4uDwo_XYk-93" style="edgeStyle=orthogonalEdgeStyle;rounded=0;orthogonalLoop=1;jettySize=auto;html=1;exitX=0.5;exitY=1;exitDx=0;exitDy=0;entryX=0.5;entryY=0;entryDx=0;entryDy=0;" edge="1" parent="WIyWlLk6GJQsqaUBKTNV-1" source="oh9VFNRBb2g4uDwo_XYk-6" target="oh9VFNRBb2g4uDwo_XYk-78">
          <mxGeometry relative="1" as="geometry" />
        </mxCell>
        <mxCell id="oh9VFNRBb2g4uDwo_XYk-94" style="edgeStyle=orthogonalEdgeStyle;rounded=0;orthogonalLoop=1;jettySize=auto;html=1;exitX=0.5;exitY=1;exitDx=0;exitDy=0;" edge="1" parent="WIyWlLk6GJQsqaUBKTNV-1" source="oh9VFNRBb2g4uDwo_XYk-6" target="oh9VFNRBb2g4uDwo_XYk-79">
          <mxGeometry relative="1" as="geometry" />
        </mxCell>
        <mxCell id="oh9VFNRBb2g4uDwo_XYk-95" style="edgeStyle=orthogonalEdgeStyle;rounded=0;orthogonalLoop=1;jettySize=auto;html=1;exitX=0.5;exitY=1;exitDx=0;exitDy=0;" edge="1" parent="WIyWlLk6GJQsqaUBKTNV-1" source="oh9VFNRBb2g4uDwo_XYk-6" target="oh9VFNRBb2g4uDwo_XYk-80">
          <mxGeometry relative="1" as="geometry" />
        </mxCell>
        <mxCell id="oh9VFNRBb2g4uDwo_XYk-6" value="消防物联网运营服务平台" style="rounded=1;whiteSpace=wrap;html=1;" vertex="1" parent="WIyWlLk6GJQsqaUBKTNV-1">
          <mxGeometry x="508" y="220" width="110" height="30" as="geometry" />
        </mxCell>
        <mxCell id="oh9VFNRBb2g4uDwo_XYk-9" value="" style="endArrow=none;html=1;exitX=0.5;exitY=0;exitDx=0;exitDy=0;entryX=0.5;entryY=1;entryDx=0;entryDy=0;" edge="1" parent="WIyWlLk6GJQsqaUBKTNV-1" source="oh9VFNRBb2g4uDwo_XYk-5" target="WIyWlLk6GJQsqaUBKTNV-7">
          <mxGeometry width="50" height="50" relative="1" as="geometry">
            <mxPoint x="274" y="150" as="sourcePoint" />
            <mxPoint x="254" y="180" as="targetPoint" />
          </mxGeometry>
        </mxCell>
        <mxCell id="oh9VFNRBb2g4uDwo_XYk-10" value="" style="endArrow=none;html=1;exitX=0.5;exitY=1;exitDx=0;exitDy=0;entryX=0.5;entryY=0;entryDx=0;entryDy=0;" edge="1" parent="WIyWlLk6GJQsqaUBKTNV-1" source="WIyWlLk6GJQsqaUBKTNV-7" target="oh9VFNRBb2g4uDwo_XYk-6">
          <mxGeometry width="50" height="50" relative="1" as="geometry">
            <mxPoint x="284" y="160" as="sourcePoint" />
            <mxPoint x="444" y="120" as="targetPoint" />
          </mxGeometry>
        </mxCell>
        <mxCell id="oh9VFNRBb2g4uDwo_XYk-13" value="消防设施监测系统" style="rounded=1;whiteSpace=wrap;html=1;" vertex="1" parent="WIyWlLk6GJQsqaUBKTNV-1">
          <mxGeometry x="196" y="463" width="20" height="140" as="geometry" />
        </mxCell>
        <mxCell id="oh9VFNRBb2g4uDwo_XYk-14" value="智慧用电系统" style="rounded=1;whiteSpace=wrap;html=1;" vertex="1" parent="WIyWlLk6GJQsqaUBKTNV-1">
          <mxGeometry x="226" y="463" width="20" height="140" as="geometry" />
        </mxCell>
        <mxCell id="oh9VFNRBb2g4uDwo_XYk-17" value="智慧用水系统" style="rounded=1;whiteSpace=wrap;html=1;" vertex="1" parent="WIyWlLk6GJQsqaUBKTNV-1">
          <mxGeometry x="256" y="463" width="20" height="140" as="geometry" />
        </mxCell>
        <mxCell id="oh9VFNRBb2g4uDwo_XYk-18" value="智慧燃气系统" style="rounded=1;whiteSpace=wrap;html=1;" vertex="1" parent="WIyWlLk6GJQsqaUBKTNV-1">
          <mxGeometry x="286" y="463" width="20" height="140" as="geometry" />
        </mxCell>
        <mxCell id="oh9VFNRBb2g4uDwo_XYk-19" value="智慧火警系统" style="rounded=1;whiteSpace=wrap;html=1;" vertex="1" parent="WIyWlLk6GJQsqaUBKTNV-1">
          <mxGeometry x="316" y="463" width="20" height="140" as="geometry" />
        </mxCell>
        <mxCell id="oh9VFNRBb2g4uDwo_XYk-20" value="消防智能分析系统" style="rounded=1;whiteSpace=wrap;html=1;" vertex="1" parent="WIyWlLk6GJQsqaUBKTNV-1">
          <mxGeometry x="346" y="463" width="20" height="140" as="geometry" />
        </mxCell>
        <mxCell id="oh9VFNRBb2g4uDwo_XYk-21" value="智能充电桩系统" style="rounded=1;whiteSpace=wrap;html=1;" vertex="1" parent="WIyWlLk6GJQsqaUBKTNV-1">
          <mxGeometry x="376" y="463" width="20" height="140" as="geometry" />
        </mxCell>
        <mxCell id="oh9VFNRBb2g4uDwo_XYk-24" value="消防设施监测系统" style="rounded=1;whiteSpace=wrap;html=1;" vertex="1" parent="WIyWlLk6GJQsqaUBKTNV-1">
          <mxGeometry x="476.5" y="463" width="20" height="140" as="geometry" />
        </mxCell>
        <mxCell id="oh9VFNRBb2g4uDwo_XYk-25" value="智慧用电系统" style="rounded=1;whiteSpace=wrap;html=1;" vertex="1" parent="WIyWlLk6GJQsqaUBKTNV-1">
          <mxGeometry x="506.5" y="463" width="20" height="140" as="geometry" />
        </mxCell>
        <mxCell id="oh9VFNRBb2g4uDwo_XYk-26" value="智慧用水系统" style="rounded=1;whiteSpace=wrap;html=1;" vertex="1" parent="WIyWlLk6GJQsqaUBKTNV-1">
          <mxGeometry x="536.5" y="463" width="20" height="140" as="geometry" />
        </mxCell>
        <mxCell id="oh9VFNRBb2g4uDwo_XYk-27" value="智慧燃气系统" style="rounded=1;whiteSpace=wrap;html=1;" vertex="1" parent="WIyWlLk6GJQsqaUBKTNV-1">
          <mxGeometry x="566.5" y="463" width="20" height="140" as="geometry" />
        </mxCell>
        <mxCell id="oh9VFNRBb2g4uDwo_XYk-28" value="智慧火警系统" style="rounded=1;whiteSpace=wrap;html=1;" vertex="1" parent="WIyWlLk6GJQsqaUBKTNV-1">
          <mxGeometry x="596.5" y="463" width="20" height="140" as="geometry" />
        </mxCell>
        <mxCell id="oh9VFNRBb2g4uDwo_XYk-29" value="消防智能分析系统" style="rounded=1;whiteSpace=wrap;html=1;" vertex="1" parent="WIyWlLk6GJQsqaUBKTNV-1">
          <mxGeometry x="626.5" y="463" width="20" height="140" as="geometry" />
        </mxCell>
        <mxCell id="oh9VFNRBb2g4uDwo_XYk-30" value="智能充电桩系统" style="rounded=1;whiteSpace=wrap;html=1;" vertex="1" parent="WIyWlLk6GJQsqaUBKTNV-1">
          <mxGeometry x="656.5" y="463" width="20" height="140" as="geometry" />
        </mxCell>
        <mxCell id="oh9VFNRBb2g4uDwo_XYk-49" value="消防物联网运营服务平台" style="rounded=0;whiteSpace=wrap;html=1;" vertex="1" parent="WIyWlLk6GJQsqaUBKTNV-1">
          <mxGeometry x="375" y="968" width="237.5" height="35" as="geometry" />
        </mxCell>
        <mxCell id="oh9VFNRBb2g4uDwo_XYk-58" value="&lt;div align=&quot;left&quot;&gt;消防数据传输：&lt;/div&gt;&lt;div&gt;基于rest的http/https&lt;br&gt;&lt;/div&gt;" style="text;html=1;resizable=0;autosize=1;align=center;verticalAlign=middle;points=[];fillColor=none;strokeColor=none;rounded=0;" vertex="1" parent="WIyWlLk6GJQsqaUBKTNV-1">
          <mxGeometry x="366.5" y="918" width="120" height="30" as="geometry" />
        </mxCell>
        <mxCell id="oh9VFNRBb2g4uDwo_XYk-61" value="消防物联网监管平台" style="rounded=0;whiteSpace=wrap;html=1;" vertex="1" parent="WIyWlLk6GJQsqaUBKTNV-1">
          <mxGeometry x="375" y="858" width="237.5" height="35" as="geometry" />
        </mxCell>
        <mxCell id="oh9VFNRBb2g4uDwo_XYk-62" value="" style="endArrow=classic;startArrow=classic;html=1;entryX=0.5;entryY=1;entryDx=0;entryDy=0;" edge="1" parent="WIyWlLk6GJQsqaUBKTNV-1" source="oh9VFNRBb2g4uDwo_XYk-49" target="oh9VFNRBb2g4uDwo_XYk-61">
          <mxGeometry width="50" height="50" relative="1" as="geometry">
            <mxPoint x="432.5" y="968" as="sourcePoint" />
            <mxPoint x="482.5" y="918" as="targetPoint" />
          </mxGeometry>
        </mxCell>
        <mxCell id="oh9VFNRBb2g4uDwo_XYk-63" value="上级平台" style="text;html=1;resizable=0;autosize=1;align=center;verticalAlign=middle;points=[];fillColor=none;strokeColor=none;rounded=0;" vertex="1" parent="WIyWlLk6GJQsqaUBKTNV-1">
          <mxGeometry x="281.5" y="864" width="58" height="18" as="geometry" />
        </mxCell>
        <mxCell id="oh9VFNRBb2g4uDwo_XYk-64" value="下级平台" style="text;html=1;resizable=0;autosize=1;align=center;verticalAlign=middle;points=[];fillColor=none;strokeColor=none;rounded=0;" vertex="1" parent="WIyWlLk6GJQsqaUBKTNV-1">
          <mxGeometry x="284.5" y="976.5" width="58" height="18" as="geometry" />
        </mxCell>
        <mxCell id="oh9VFNRBb2g4uDwo_XYk-68" value="建筑物" style="rounded=1;whiteSpace=wrap;html=1;" vertex="1" parent="WIyWlLk6GJQsqaUBKTNV-1">
          <mxGeometry x="225" y="299" width="22" height="92" as="geometry" />
        </mxCell>
        <mxCell id="oh9VFNRBb2g4uDwo_XYk-69" value="联网单位" style="rounded=1;whiteSpace=wrap;html=1;" vertex="1" parent="WIyWlLk6GJQsqaUBKTNV-1">
          <mxGeometry x="194" y="299" width="22" height="92" as="geometry" />
        </mxCell>
        <mxCell id="oh9VFNRBb2g4uDwo_XYk-70" value="建筑物" style="rounded=1;whiteSpace=wrap;html=1;" vertex="1" parent="WIyWlLk6GJQsqaUBKTNV-1">
          <mxGeometry x="255" y="299" width="22" height="92" as="geometry" />
        </mxCell>
        <mxCell id="oh9VFNRBb2g4uDwo_XYk-96" style="edgeStyle=orthogonalEdgeStyle;rounded=0;orthogonalLoop=1;jettySize=auto;html=1;exitX=0.5;exitY=1;exitDx=0;exitDy=0;" edge="1" parent="WIyWlLk6GJQsqaUBKTNV-1" source="oh9VFNRBb2g4uDwo_XYk-71" target="oh9VFNRBb2g4uDwo_XYk-13">
          <mxGeometry relative="1" as="geometry" />
        </mxCell>
        <mxCell id="oh9VFNRBb2g4uDwo_XYk-97" style="edgeStyle=orthogonalEdgeStyle;rounded=0;orthogonalLoop=1;jettySize=auto;html=1;exitX=0.5;exitY=1;exitDx=0;exitDy=0;" edge="1" parent="WIyWlLk6GJQsqaUBKTNV-1" source="oh9VFNRBb2g4uDwo_XYk-71" target="oh9VFNRBb2g4uDwo_XYk-14">
          <mxGeometry relative="1" as="geometry" />
        </mxCell>
        <mxCell id="oh9VFNRBb2g4uDwo_XYk-98" style="edgeStyle=orthogonalEdgeStyle;rounded=0;orthogonalLoop=1;jettySize=auto;html=1;exitX=0.5;exitY=1;exitDx=0;exitDy=0;entryX=0.5;entryY=0;entryDx=0;entryDy=0;" edge="1" parent="WIyWlLk6GJQsqaUBKTNV-1" source="oh9VFNRBb2g4uDwo_XYk-71" target="oh9VFNRBb2g4uDwo_XYk-17">
          <mxGeometry relative="1" as="geometry" />
        </mxCell>
        <mxCell id="oh9VFNRBb2g4uDwo_XYk-99" style="edgeStyle=orthogonalEdgeStyle;rounded=0;orthogonalLoop=1;jettySize=auto;html=1;exitX=0.5;exitY=1;exitDx=0;exitDy=0;entryX=0.5;entryY=0;entryDx=0;entryDy=0;" edge="1" parent="WIyWlLk6GJQsqaUBKTNV-1" source="oh9VFNRBb2g4uDwo_XYk-71" target="oh9VFNRBb2g4uDwo_XYk-18">
          <mxGeometry relative="1" as="geometry" />
        </mxCell>
        <mxCell id="oh9VFNRBb2g4uDwo_XYk-100" style="edgeStyle=orthogonalEdgeStyle;rounded=0;orthogonalLoop=1;jettySize=auto;html=1;exitX=0.5;exitY=1;exitDx=0;exitDy=0;entryX=0.5;entryY=0;entryDx=0;entryDy=0;" edge="1" parent="WIyWlLk6GJQsqaUBKTNV-1" source="oh9VFNRBb2g4uDwo_XYk-71" target="oh9VFNRBb2g4uDwo_XYk-19">
          <mxGeometry relative="1" as="geometry" />
        </mxCell>
        <mxCell id="oh9VFNRBb2g4uDwo_XYk-101" style="edgeStyle=orthogonalEdgeStyle;rounded=0;orthogonalLoop=1;jettySize=auto;html=1;exitX=0.5;exitY=1;exitDx=0;exitDy=0;entryX=0.5;entryY=0;entryDx=0;entryDy=0;" edge="1" parent="WIyWlLk6GJQsqaUBKTNV-1" source="oh9VFNRBb2g4uDwo_XYk-71" target="oh9VFNRBb2g4uDwo_XYk-20">
          <mxGeometry relative="1" as="geometry" />
        </mxCell>
        <mxCell id="oh9VFNRBb2g4uDwo_XYk-102" style="edgeStyle=orthogonalEdgeStyle;rounded=0;orthogonalLoop=1;jettySize=auto;html=1;exitX=0.5;exitY=1;exitDx=0;exitDy=0;" edge="1" parent="WIyWlLk6GJQsqaUBKTNV-1" source="oh9VFNRBb2g4uDwo_XYk-71" target="oh9VFNRBb2g4uDwo_XYk-21">
          <mxGeometry relative="1" as="geometry" />
        </mxCell>
        <mxCell id="oh9VFNRBb2g4uDwo_XYk-71" value="物联感知设备" style="rounded=1;whiteSpace=wrap;html=1;" vertex="1" parent="WIyWlLk6GJQsqaUBKTNV-1">
          <mxGeometry x="285" y="299" width="22" height="92" as="geometry" />
        </mxCell>
        <mxCell id="oh9VFNRBb2g4uDwo_XYk-72" value="部件" style="rounded=1;whiteSpace=wrap;html=1;" vertex="1" parent="WIyWlLk6GJQsqaUBKTNV-1">
          <mxGeometry x="315" y="299" width="22" height="92" as="geometry" />
        </mxCell>
        <mxCell id="oh9VFNRBb2g4uDwo_XYk-74" value="消防设施" style="rounded=1;whiteSpace=wrap;html=1;" vertex="1" parent="WIyWlLk6GJQsqaUBKTNV-1">
          <mxGeometry x="345" y="299" width="22" height="92" as="geometry" />
        </mxCell>
        <mxCell id="oh9VFNRBb2g4uDwo_XYk-75" value="建筑物" style="rounded=1;whiteSpace=wrap;html=1;" vertex="1" parent="WIyWlLk6GJQsqaUBKTNV-1">
          <mxGeometry x="505" y="303" width="22" height="92" as="geometry" />
        </mxCell>
        <mxCell id="oh9VFNRBb2g4uDwo_XYk-76" value="联网单位" style="rounded=1;whiteSpace=wrap;html=1;" vertex="1" parent="WIyWlLk6GJQsqaUBKTNV-1">
          <mxGeometry x="474" y="303" width="22" height="92" as="geometry" />
        </mxCell>
        <mxCell id="oh9VFNRBb2g4uDwo_XYk-77" value="建筑物" style="rounded=1;whiteSpace=wrap;html=1;" vertex="1" parent="WIyWlLk6GJQsqaUBKTNV-1">
          <mxGeometry x="535" y="303" width="22" height="92" as="geometry" />
        </mxCell>
        <mxCell id="oh9VFNRBb2g4uDwo_XYk-103" style="edgeStyle=orthogonalEdgeStyle;rounded=0;orthogonalLoop=1;jettySize=auto;html=1;exitX=0.5;exitY=1;exitDx=0;exitDy=0;" edge="1" parent="WIyWlLk6GJQsqaUBKTNV-1" source="oh9VFNRBb2g4uDwo_XYk-78" target="oh9VFNRBb2g4uDwo_XYk-24">
          <mxGeometry relative="1" as="geometry" />
        </mxCell>
        <mxCell id="oh9VFNRBb2g4uDwo_XYk-104" style="edgeStyle=orthogonalEdgeStyle;rounded=0;orthogonalLoop=1;jettySize=auto;html=1;exitX=0.5;exitY=1;exitDx=0;exitDy=0;" edge="1" parent="WIyWlLk6GJQsqaUBKTNV-1" source="oh9VFNRBb2g4uDwo_XYk-78" target="oh9VFNRBb2g4uDwo_XYk-25">
          <mxGeometry relative="1" as="geometry" />
        </mxCell>
        <mxCell id="oh9VFNRBb2g4uDwo_XYk-105" style="edgeStyle=orthogonalEdgeStyle;rounded=0;orthogonalLoop=1;jettySize=auto;html=1;exitX=0.5;exitY=1;exitDx=0;exitDy=0;entryX=0.5;entryY=0;entryDx=0;entryDy=0;" edge="1" parent="WIyWlLk6GJQsqaUBKTNV-1" source="oh9VFNRBb2g4uDwo_XYk-78" target="oh9VFNRBb2g4uDwo_XYk-26">
          <mxGeometry relative="1" as="geometry" />
        </mxCell>
        <mxCell id="oh9VFNRBb2g4uDwo_XYk-106" style="edgeStyle=orthogonalEdgeStyle;rounded=0;orthogonalLoop=1;jettySize=auto;html=1;exitX=0.5;exitY=1;exitDx=0;exitDy=0;entryX=0.5;entryY=0;entryDx=0;entryDy=0;" edge="1" parent="WIyWlLk6GJQsqaUBKTNV-1" source="oh9VFNRBb2g4uDwo_XYk-78" target="oh9VFNRBb2g4uDwo_XYk-27">
          <mxGeometry relative="1" as="geometry" />
        </mxCell>
        <mxCell id="oh9VFNRBb2g4uDwo_XYk-108" style="edgeStyle=orthogonalEdgeStyle;rounded=0;orthogonalLoop=1;jettySize=auto;html=1;exitX=0.5;exitY=1;exitDx=0;exitDy=0;entryX=0.5;entryY=0;entryDx=0;entryDy=0;" edge="1" parent="WIyWlLk6GJQsqaUBKTNV-1" source="oh9VFNRBb2g4uDwo_XYk-78" target="oh9VFNRBb2g4uDwo_XYk-28">
          <mxGeometry relative="1" as="geometry" />
        </mxCell>
        <mxCell id="oh9VFNRBb2g4uDwo_XYk-109" style="edgeStyle=orthogonalEdgeStyle;rounded=0;orthogonalLoop=1;jettySize=auto;html=1;exitX=0.5;exitY=1;exitDx=0;exitDy=0;" edge="1" parent="WIyWlLk6GJQsqaUBKTNV-1" source="oh9VFNRBb2g4uDwo_XYk-78" target="oh9VFNRBb2g4uDwo_XYk-29">
          <mxGeometry relative="1" as="geometry" />
        </mxCell>
        <mxCell id="oh9VFNRBb2g4uDwo_XYk-110" style="edgeStyle=orthogonalEdgeStyle;rounded=0;orthogonalLoop=1;jettySize=auto;html=1;exitX=0.5;exitY=1;exitDx=0;exitDy=0;" edge="1" parent="WIyWlLk6GJQsqaUBKTNV-1" source="oh9VFNRBb2g4uDwo_XYk-78" target="oh9VFNRBb2g4uDwo_XYk-30">
          <mxGeometry relative="1" as="geometry" />
        </mxCell>
        <mxCell id="oh9VFNRBb2g4uDwo_XYk-78" value="物联感知设备" style="rounded=1;whiteSpace=wrap;html=1;" vertex="1" parent="WIyWlLk6GJQsqaUBKTNV-1">
          <mxGeometry x="565" y="303" width="22" height="92" as="geometry" />
        </mxCell>
        <mxCell id="oh9VFNRBb2g4uDwo_XYk-79" value="部件" style="rounded=1;whiteSpace=wrap;html=1;" vertex="1" parent="WIyWlLk6GJQsqaUBKTNV-1">
          <mxGeometry x="595" y="303" width="22" height="92" as="geometry" />
        </mxCell>
        <mxCell id="oh9VFNRBb2g4uDwo_XYk-80" value="消防设施" style="rounded=1;whiteSpace=wrap;html=1;" vertex="1" parent="WIyWlLk6GJQsqaUBKTNV-1">
          <mxGeometry x="625" y="303" width="22" height="92" as="geometry" />
        </mxCell>
      </root>
    </mxGraphModel>
  </diagram>
</mxfile>
